<svg width="50" height="50" xmlns="http://www.w3.org/2000/svg" fill="none">

 <g>
  <title>Layer 1</title>
  <path id="svg_1" fill="#9ca3af" d="m18.75,6.25c-6.9036,0 -12.5,5.5964 -12.5,12.5c0,6.9036 5.5964,12.5 12.5,12.5c6.9036,0 12.5,-5.5964 12.5,-12.5c0,-6.9036 -5.5964,-12.5 -12.5,-12.5zm-18.75,12.5c0,-10.35534 8.39466,-18.75 18.75,-18.75c10.3553,0 18.75,8.39466 18.75,18.75c0,4.0495 -1.2837,7.7991 -3.4664,10.8642l15.0511,15.0511c1.2204,1.2204 1.2204,3.199 0,4.4194c-1.2204,1.2204 -3.199,1.2204 -4.4194,0l-15.0511,-15.0511c-3.0651,2.1827 -6.8147,3.4664 -10.8642,3.4664c-10.35534,0 -18.75,-8.3947 -18.75,-18.75z" clip-rule="evenodd" fill-rule="evenodd"/>
 </g>
</svg>