<svg width="50" height="50" xmlns="http://www.w3.org/2000/svg" fill="none">

 <g>
  <title>Layer 1</title>
  <path id="svg_1" fill="#111827" d="m25,50c13.8071,0 25,-11.1929 25,-25c0,-13.8071 -11.1929,-25 -25,-25c-13.8071,0 -25,11.1929 -25,25c0,13.8071 11.1929,25 25,25zm3.125,-34.375c0,-1.7259 -1.3991,-3.125 -3.125,-3.125c-1.7259,0 -3.125,1.3991 -3.125,3.125l0,6.25l-6.25,0c-1.7259,0 -3.125,1.3991 -3.125,3.125c0,1.7259 1.3991,3.125 3.125,3.125l6.25,0l0,6.25c0,1.7259 1.3991,3.125 3.125,3.125c1.7259,0 3.125,-1.3991 3.125,-3.125l0,-6.25l6.25,0c1.7259,0 3.125,-1.3991 3.125,-3.125c0,-1.7259 -1.3991,-3.125 -3.125,-3.125l-6.25,0l0,-6.25z" clip-rule="evenodd" fill-rule="evenodd"/>
 </g>
</svg>